<svg width="328" height="328" viewBox="0 0 328 328" fill="none" xmlns="http://www.w3.org/2000/svg">
<circle cx="164" cy="164" r="161.5" fill="#E75B00" stroke="black" stroke-width="5"/>
<path fill-rule="evenodd" clip-rule="evenodd" d="M167.465 57.8504C173.13 56.7828 176.921 54.7152 175.612 53.4075C173.735 51.5308 157.877 51.5308 146.344 53.4075C131.988 55.7434 118.226 60.72 106.613 67.7756C95.0875 74.7763 78.854 90.4494 71.4037 101.769C60.9279 117.687 53.767 139.816 53.7122 156.438C53.6911 162.894 53.354 163.807 51.2302 163.164C46.4361 161.71 36.0951 159.573 33.6988 159.538C29.7517 159.484 29.0396 165.809 32.4978 170.205L35.4673 173.98L31.2336 176.554C28.9047 177.97 27 179.769 27 180.553C27 182.424 32.2056 187.598 34.0865 187.598C34.9883 187.598 35.2186 189.394 34.682 192.253C33.2422 199.926 36.2355 201.134 47.4432 197.405C52.5603 195.702 57.228 194.853 57.8165 195.518C58.4037 196.184 59.9727 199.538 61.3015 202.973C72.4628 231.81 99.2508 257.22 128.135 266.367C132.739 267.825 135.777 269.574 135.655 270.696C135.541 271.732 133.991 276.536 132.208 281.373C129.271 289.345 129.173 290.373 131.162 292.362C133.122 294.323 133.885 294.333 138.356 292.466C143.746 290.213 144.99 290.602 144.99 294.535C144.99 295.924 146.373 297.801 148.061 298.704C150.726 300.131 151.571 299.834 154.473 296.463C157.385 293.078 158.252 292.778 161.218 294.129C164.905 295.809 168.275 295.116 169.291 292.469C169.642 291.553 169.413 287.652 168.781 283.798C166.858 272.072 166.915 271.876 172.29 271.876C179.5 271.876 196.171 268.077 204.427 264.554C233.576 252.109 254.981 230.967 265.807 203.934C271.888 188.745 272.301 185.68 268.745 182.125C267.12 180.5 264.526 179.17 262.981 179.17C259.046 179.17 254.553 184.097 254.553 188.412C254.553 195.705 230.325 215.55 218.546 217.906C215.373 218.541 213.276 217.762 209 214.363C202.476 209.179 198.646 208.038 191.97 209.291C186.853 210.252 181.528 216.509 181.517 221.577C181.51 224.411 180.809 224.891 174.817 226.176C170.513 227.1 170.093 226.838 168.055 221.959C165.962 216.95 165.688 216.795 160.703 217.776C152.084 219.473 148.906 219.305 147.853 217.095C144.816 210.725 143.774 208.204 141.916 207.211C140.514 206.462 138.648 206.582 135.112 206.574L127.432 206.56L126.993 200.239C126.463 192.629 125.55 191.574 117.906 189.73L111.981 188.3L112.463 179.562L112.946 170.825L107.196 168.524C100.92 166.012 99.7832 162.525 103.598 157.481C106.808 153.237 106.051 148.775 101.38 144.41C96.5988 139.941 96.8278 137.134 102.267 133.571C106.429 130.844 106.656 126.033 102.851 121.196C98.9376 116.22 99.2831 114.938 105.309 112.08C110.914 109.419 111.777 106.224 109.273 97.4038C108.246 93.784 108.516 93.5143 114.769 91.9397C121.309 90.2935 124.439 86.6892 122.883 82.5974C122.515 81.6296 122.602 79.2895 123.076 77.3974C123.881 74.1892 124.4 74.0108 130.699 74.7567L137.459 75.5573L139.997 68.9133L142.534 62.2694L149.166 63.1487C154.428 63.8468 156.496 63.4858 159.173 61.4027C161.03 59.9587 164.761 58.3602 167.465 57.8504ZM200.015 225.253C195.843 224.77 194.33 220.969 197.018 217.73C199.104 215.216 199.957 215.192 203.186 217.553C207.112 220.423 204.889 225.819 200.015 225.253Z" fill="black"/>
<path d="M235.964 112.746L238.573 117.374L243.78 118.425L240.185 122.336L240.795 127.613L235.964 125.402L231.134 127.613L231.744 122.336L228.148 118.425L233.356 117.374L235.964 112.746Z" fill="white"/>
<path d="M257.591 84.1984L261.748 90.4075L269.204 90.9027L265.905 97.6071L269.204 104.311L261.748 104.807L257.591 111.016L253.435 104.807L245.979 104.311L249.278 97.6071L245.979 90.9027L253.435 90.4075L257.591 84.1984Z" fill="white"/>
<path d="M220.393 152.54L224.072 160.525L232.321 157.481L229.276 165.729L237.262 169.409L229.276 173.088L232.321 181.337L224.072 178.292L220.393 186.278L216.713 178.292L208.465 181.337L211.509 173.088L203.524 169.409L211.509 165.729L208.465 157.481L216.713 160.525L220.393 152.54Z" fill="white"/>
<path d="M176.706 95.4445L180.343 102.598L188.204 100.982L184.879 108.285L191.044 113.423L183.26 115.377L183.087 123.401L176.706 118.533L170.326 123.401L170.153 115.377L162.369 113.423L168.534 108.285L165.208 100.982L173.069 102.598L176.706 95.4445Z" fill="white"/>
<path d="M219.96 47L223.597 54.1539L231.458 52.5371L228.133 59.841L234.298 64.9788L226.514 66.9328L226.341 74.9563L219.96 70.089L213.579 74.9563L213.406 66.9328L205.623 64.9788L211.788 59.841L208.462 52.5371L216.323 54.1539L219.96 47Z" fill="white"/>
</svg>
